<svg width="168" height="61" viewBox="0 0 168 61" fill="none" xmlns="http://www.w3.org/2000/svg">
<g clip-path="url(#clip0_75_819)">
<path d="M99.93 14.15H95.68V25.69H92.26V14.15H92.54V11.51H99.93V14.15Z" fill="url(#paint0_linear_75_819)"/>
<path d="M110.16 19.67H104.79V23.06H111.14V25.69H101.38V11.52H111.16V14.16H104.79V17.15H110.16V19.68V19.67Z" fill="url(#paint1_linear_75_819)"/>
<path d="M123.99 20.8901C123.94 21.8801 123.68 22.7501 123.19 23.5001C122.7 24.2601 122.02 24.8401 121.14 25.2601C120.26 25.6801 119.26 25.8801 118.13 25.8801C116.27 25.8801 114.8 25.2701 113.73 24.0601C112.66 22.8501 112.12 21.1301 112.12 18.9201V18.2201C112.12 16.8301 112.36 15.6201 112.85 14.5701C113.33 13.5301 114.03 12.7201 114.94 12.1601C115.85 11.5901 116.9 11.3101 118.09 11.3101C119.81 11.3101 121.19 11.7601 122.24 12.6701C123.28 13.5801 123.88 14.8201 124.02 16.4101H120.61C120.58 15.5501 120.37 14.9301 119.96 14.5501C119.55 14.1701 118.93 13.9901 118.09 13.9901C117.25 13.9901 116.62 14.3101 116.22 14.9401C115.82 15.5801 115.62 16.5901 115.6 17.9901V18.9901C115.6 20.5001 115.79 21.5801 116.17 22.2301C116.55 22.8801 117.2 23.2001 118.13 23.2001C118.92 23.2001 119.52 23.0201 119.93 22.6501C120.35 22.2801 120.57 21.6901 120.59 20.8901H123.99Z" fill="url(#paint2_linear_75_819)"/>
<path d="M137.45 25.69H134.05V19.77H129.02V25.69H125.6V11.52H129.02V17.15H134.05V11.52H137.45V25.69Z" fill="url(#paint3_linear_75_819)"/>
<path d="M93.24 34.8201C93.93 35.3101 95.01 35.7701 96.5 36.1901C97.99 36.6101 99.01 37.0501 99.57 37.5101C100.13 37.9701 100.41 38.6101 100.41 39.4001C100.41 40.1901 100.07 40.8701 99.39 41.3701C98.71 41.8701 97.81 42.1101 96.69 42.1101C95.43 42.1101 94.42 41.8201 93.66 41.2301C92.9 40.6401 92.52 39.8401 92.52 38.8301V41.5701C92.77 41.9901 93.28 42.3301 93.9 42.6001C94.75 42.9601 95.68 43.1401 96.69 43.1401C98.17 43.1401 99.37 42.8001 100.27 42.1101C101.18 41.4201 101.63 40.5101 101.63 39.3801C101.63 38.6601 101.46 38.0401 101.13 37.5101C100.79 36.9801 100.29 36.5301 99.63 36.1501C98.96 35.7701 97.99 35.4001 96.69 35.0501C95.39 34.7001 94.46 34.2901 93.87 33.8301C93.28 33.3701 92.99 32.7701 92.99 32.0401C92.99 31.2501 93.32 30.6101 93.97 30.1101C94.62 29.6201 95.5 29.3701 96.6 29.3701C97.7 29.3701 98.64 29.6701 99.31 30.2701C99.98 30.8701 100.32 31.6601 100.32 32.6501H101.55C101.55 31.8401 101.34 31.1001 100.93 30.4501C100.52 29.8001 99.93 29.2801 99.17 28.9101C98.42 28.5401 97.56 28.3601 96.6 28.3601C95.19 28.3601 94.03 28.7001 93.12 29.3901C92.82 29.6201 92.57 29.8801 92.48 30.1601V33.9901C92.58 34.3001 92.87 34.5801 93.22 34.8301L93.24 34.8201Z" fill="url(#paint4_linear_75_819)"/>
<path d="M106.12 30.8401C106.89 29.8601 107.93 29.3801 109.24 29.3801C111.59 29.3801 112.92 30.6001 113.22 33.0501H114.45C114.3 31.5801 113.79 30.4301 112.89 29.6001C112 28.7701 110.78 28.3501 109.24 28.3501C108.15 28.3501 107.18 28.6201 106.34 29.1601C105.5 29.7001 104.85 30.4601 104.41 31.4501C103.97 32.4401 103.74 33.5701 103.74 34.8501V36.7201C103.74 37.9801 103.97 39.1001 104.42 40.0801C104.87 41.0601 105.5 41.8201 106.32 42.3501C107.14 42.8801 108.09 43.1501 109.15 43.1501C110.68 43.1501 111.9 42.7501 112.82 41.9401C113.74 41.1401 114.28 39.9801 114.45 38.4601H113.22C113.07 39.6801 112.67 40.5901 112.02 41.2001C111.37 41.8101 110.41 42.1101 109.14 42.1101C107.87 42.1101 106.83 41.6201 106.08 40.6301C105.32 39.6401 104.95 38.3101 104.95 36.6501V34.8901C104.95 33.1701 105.34 31.8201 106.11 30.8401H106.12Z" fill="url(#paint5_linear_75_819)"/>
<path d="M126.85 35.0201H118.63V28.55H117.41V42.9501H118.63V36.0401H126.85V42.9501H128.08V28.55H126.85V35.0201Z" fill="url(#paint6_linear_75_819)"/>
<path d="M139.69 29.1501C138.84 28.6201 137.87 28.3501 136.76 28.3501C135.65 28.3501 134.67 28.6201 133.82 29.1701C132.97 29.7101 132.31 30.4901 131.85 31.5001C131.39 32.5101 131.15 33.6701 131.15 34.9901V36.4701C131.15 38.5101 131.67 40.1401 132.7 41.3401C133.73 42.5401 135.09 43.1401 136.77 43.1401C137.88 43.1401 138.87 42.8701 139.72 42.3301C140.57 41.7901 141.22 41.0201 141.68 40.0201C142.14 39.0201 142.37 37.8501 142.37 36.5301V34.8101C142.35 33.5201 142.11 32.3901 141.65 31.4201C141.19 30.4401 140.53 29.6901 139.69 29.1601V29.1501ZM141.16 36.4901C141.16 38.2501 140.77 39.6201 140 40.6101C139.23 41.6001 138.15 42.0901 136.78 42.0901C135.41 42.0901 134.35 41.5901 133.56 40.5901C132.77 39.5901 132.37 38.2401 132.37 36.5301V35.0301C132.37 33.2601 132.77 31.8901 133.56 30.9001C134.35 29.9101 135.42 29.4201 136.76 29.4201C138.1 29.4201 139.2 29.9101 139.98 30.8901C140.76 31.8701 141.16 33.2301 141.16 34.9601V36.4801V36.4901Z" fill="url(#paint7_linear_75_819)"/>
<path d="M153.4 29.1501C152.55 28.6201 151.58 28.3501 150.47 28.3501C149.36 28.3501 148.38 28.6201 147.53 29.1701C146.68 29.7101 146.02 30.4901 145.56 31.5001C145.1 32.5101 144.86 33.6701 144.86 34.9901V36.4701C144.86 38.5101 145.38 40.1401 146.41 41.3401C147.44 42.5401 148.8 43.1401 150.48 43.1401C151.59 43.1401 152.58 42.8701 153.43 42.3301C154.28 41.7901 154.93 41.0201 155.39 40.0201C155.85 39.0201 156.08 37.8501 156.08 36.5301V34.8101C156.06 33.5201 155.82 32.3901 155.36 31.4201C154.9 30.4401 154.24 29.6901 153.4 29.1601V29.1501ZM154.86 36.4901C154.86 38.2501 154.47 39.6201 153.7 40.6101C152.93 41.6001 151.85 42.0901 150.48 42.0901C149.11 42.0901 148.05 41.5901 147.26 40.5901C146.47 39.5901 146.07 38.2401 146.07 36.5301V35.0301C146.07 33.2601 146.47 31.8901 147.26 30.9001C148.05 29.9101 149.12 29.4201 150.46 29.4201C151.8 29.4201 152.9 29.9101 153.68 30.8901C154.46 31.8701 154.86 33.2301 154.86 34.9601V36.4801V36.4901Z" fill="url(#paint8_linear_75_819)"/>
<path d="M160.37 28.55H159.15V42.9501H167.48V41.92H160.37V28.55Z" fill="url(#paint9_linear_75_819)"/>
<path d="M84.93 13.4299C84.51 13.0399 82.57 11.3699 79.79 10.9099V11.0999C81.52 11.8299 84.11 13.7699 84.25 18.2499C84.25 18.3799 84.36 18.4899 84.48 18.4899C84.6 18.4899 84.71 18.3899 84.71 18.2599L85 13.6299C85 13.5499 84.98 13.4799 84.92 13.4299H84.93Z" fill="white"/>
<path d="M85.58 27.33C81.86 31.73 73.85 31.76 73.22 21.91C72.71 14.28 76.22 11.89 77.87 11.18V11.01C75.11 11.47 69.84 13.46 69.84 21.89C69.84 28.87 75.22 32.25 78.89 32.25C83.01 32.25 85.04 29.56 85.97 27.62C86.1 27.35 85.76 27.12 85.57 27.34L85.58 27.33Z" fill="white"/>
<path d="M44.07 31.5999C43.09 31.5599 42.22 31.1899 42.22 29.5199V13.1899C42.22 13.0999 42.18 13.0199 42.11 12.9699L39.71 11.3299C39.52 11.1999 39.29 11.3799 39.34 11.6199C39.4 11.8899 39.42 12.1999 39.42 12.5899V29.5299C39.42 31.1899 38.57 31.5599 37.59 31.6099C37.46 31.6099 37.36 31.7299 37.36 31.8699V31.9899H44.3V31.8699C44.3 31.7299 44.2 31.6199 44.07 31.6099V31.5999Z" fill="white"/>
<path d="M68.48 31.5999C67.5 31.5599 66.63 31.1899 66.63 29.5199V13.1899C66.63 13.0999 66.59 13.0199 66.52 12.9699L64.12 11.3299C63.93 11.1999 63.7 11.3799 63.75 11.6199C63.81 11.8899 63.83 12.1999 63.83 12.5899V29.5299C63.83 31.1899 62.98 31.5599 62 31.6099C61.87 31.6099 61.77 31.7299 61.77 31.8699V31.9899H68.71V31.8699C68.71 31.7299 68.61 31.6199 68.48 31.6099V31.5999Z" fill="white"/>
<path d="M54.76 30.65V11.51C54.76 11.37 54.65 11.25 54.52 11.25H52.13C51.99 11.25 51.89 11.37 51.89 11.51V29.92H51.91V30.04C51.91 30.13 51.95 30.21 52.02 30.26L54.48 31.92C54.67 32.05 54.9 31.86 54.85 31.63C54.79 31.35 54.76 31.05 54.76 30.65Z" fill="white"/>
<path d="M45.14 11.38V11.26L45.13 11.39C45.11 11.42 45.1 11.46 45.1 11.49L44.79 16.61L44.75 17.25C44.75 17.4 44.85 17.53 44.99 17.53H45.33V17.31C45.33 17.31 45.33 17.31 45.33 17.29C45.69 13.61 47.64 12.05 48.93 11.51V11.25H45.35C45.26 11.25 45.19 11.3 45.15 11.37L45.14 11.38Z" fill="white"/>
<path d="M60.8 11.4199C60.8 11.4199 60.8 11.4099 60.8 11.3999V11.1899L60.78 11.3299C60.74 11.2399 60.66 11.1799 60.56 11.1799H57.08V11.3999C58.38 11.9199 60.4 13.4099 60.59 17.0299C60.59 17.0699 60.61 17.1099 60.63 17.1399V17.2699H60.93C61.07 17.2699 61.18 17.1499 61.17 16.9999L60.85 12.0899L60.81 11.3999L60.8 11.4199Z" fill="white"/>
<path d="M38.01 40.3702V42.8802H37.49V36.7202H39.59C40.23 36.7202 40.74 36.8802 41.11 37.2102C41.48 37.5402 41.67 37.9902 41.67 38.5602C41.67 39.1302 41.49 39.5802 41.14 39.9002C40.79 40.2202 40.27 40.3702 39.59 40.3702H38.02H38.01ZM38.01 39.9302H39.59C40.09 39.9302 40.48 39.8102 40.74 39.5702C41.01 39.3302 41.14 39.0002 41.14 38.5702C41.14 38.1402 41.01 37.8002 40.74 37.5502C40.48 37.3002 40.1 37.1702 39.62 37.1602H38.01V39.9302Z" fill="white"/>
<path d="M52.01 41.1502H49.21L48.58 42.8802H48.03L50.36 36.7202H50.86L53.19 42.8802H52.65L52.01 41.1502ZM49.37 40.7102H51.84L50.61 37.3602L49.37 40.7102Z" fill="white"/>
<path d="M62.84 40.3102H61.05V42.8802H60.53V36.7202H62.53C63.19 36.7202 63.7 36.8802 64.07 37.2002C64.44 37.5202 64.62 37.9602 64.62 38.5302C64.62 38.9202 64.5 39.2702 64.27 39.5702C64.04 39.8702 63.73 40.0802 63.34 40.2002L64.88 42.8202V42.8702H64.33L62.84 40.3002V40.3102ZM61.05 39.8702H62.64C63.08 39.8702 63.43 39.7502 63.69 39.5002C63.96 39.2502 64.09 38.9302 64.09 38.5302C64.09 38.1002 63.95 37.7602 63.68 37.5202C63.4 37.2802 63.02 37.1602 62.52 37.1602H61.05V39.8702Z" fill="white"/>
<path d="M73.11 42.8802H72.59V36.7202H73.11V42.8802Z" fill="white"/>
<path d="M84.71 41.3601C84.71 41.0201 84.59 40.7501 84.35 40.5501C84.11 40.3501 83.67 40.1601 83.03 39.9801C82.39 39.8001 81.93 39.6101 81.63 39.3901C81.21 39.0901 81 38.7001 81 38.2101C81 37.7201 81.19 37.3601 81.58 37.0601C81.97 36.7701 82.46 36.6201 83.07 36.6201C83.48 36.6201 83.84 36.7001 84.17 36.8601C84.49 37.0201 84.74 37.2401 84.92 37.5201C85.1 37.8001 85.19 38.1201 85.19 38.4601H84.67C84.67 38.0401 84.53 37.7001 84.24 37.4401C83.95 37.1801 83.57 37.0601 83.08 37.0601C82.59 37.0601 82.23 37.1601 81.96 37.3801C81.68 37.5901 81.54 37.8601 81.54 38.2001C81.54 38.5101 81.67 38.7701 81.92 38.9701C82.17 39.1701 82.57 39.3401 83.13 39.4901C83.69 39.6401 84.1 39.8001 84.39 39.9601C84.68 40.1201 84.89 40.3201 85.03 40.5401C85.17 40.7601 85.25 41.0301 85.25 41.3401C85.25 41.8201 85.06 42.2101 84.67 42.5101C84.28 42.8001 83.77 42.9501 83.14 42.9501C82.71 42.9501 82.31 42.8701 81.94 42.7201C81.57 42.5701 81.3 42.3501 81.12 42.0701C80.93 41.7901 80.84 41.4701 80.84 41.1101H81.36C81.36 41.5401 81.52 41.8901 81.85 42.1401C82.17 42.3901 82.61 42.5201 83.14 42.5201C83.62 42.5201 84 42.4101 84.29 42.2001C84.58 41.9901 84.73 41.7101 84.73 41.3601H84.71Z" fill="white"/>
<path d="M0 7.11011V25.4701C0 28.9301 0.9 32.1301 2.26 35.0101L30.17 7.11011H0Z" fill="white"/>
<path d="M30.16 10.9099L3.58997 37.4899C8.03997 44.9499 15.06 49.6099 15.06 49.6099H15.11C15.11 49.6099 30.17 39.6099 30.17 25.4699V10.9099H30.16Z" fill="white"/>
<path d="M92.83 7.03003H92.25V49.31H92.83V7.03003Z" fill="white"/>
<path d="M158.86 0H155.65V3.21H158.86V0Z" fill="url(#paint10_linear_75_819)"/>
<path d="M146.1 3.16992H142.89V6.37992H146.1V3.16992Z" fill="url(#paint11_linear_75_819)"/>
<path d="M146.1 7.22998H142.89V10.44H146.1V7.22998Z" fill="url(#paint12_linear_75_819)"/>
<path d="M146.15 11.1899H142.94V14.3999H146.15V11.1899Z" fill="url(#paint13_linear_75_819)"/>
<path d="M146.15 15.1499H142.94V18.3599H146.15V15.1499Z" fill="url(#paint14_linear_75_819)"/>
<path d="M150.37 3.16992H147.16V6.37992H150.37V3.16992Z" fill="url(#paint15_linear_75_819)"/>
<path d="M150.37 7.22998H147.16V10.44H150.37V7.22998Z" fill="url(#paint16_linear_75_819)"/>
<path d="M150.43 15.1499H147.22V18.3599H150.43V15.1499Z" fill="url(#paint17_linear_75_819)"/>
<path d="M154.6 7.22998H151.39V10.44H154.6V7.22998Z" fill="url(#paint18_linear_75_819)"/>
<path d="M158.86 7.22998H155.65V10.44H158.86V7.22998Z" fill="url(#paint19_linear_75_819)"/>
<path d="M158.86 11.2H155.65V14.41H158.86V11.2Z" fill="url(#paint20_linear_75_819)"/>
<path d="M154.65 15.1499H151.44V18.3599H154.65V15.1499Z" fill="url(#paint21_linear_75_819)"/>
<path d="M159.01 15.1499H155.8V18.3599H159.01V15.1499Z" fill="url(#paint22_linear_75_819)"/>
<path d="M154.65 19.1599H151.44V22.3699H154.65V19.1599Z" fill="url(#paint23_linear_75_819)"/>
<path d="M141.88 7.22998H138.67V10.44H141.88V7.22998Z" fill="url(#paint24_linear_75_819)"/>
<path d="M135.2 5.6001H131.99V8.8101H135.2V5.6001Z" fill="url(#paint25_linear_75_819)"/>
<path d="M141.93 11.1899H138.72V14.3999H141.93V11.1899Z" fill="url(#paint26_linear_75_819)"/>
</g>
<defs>
<linearGradient id="paint0_linear_75_819" x1="100.49" y1="18.61" x2="139.64" y2="18.61" gradientUnits="userSpaceOnUse">
<stop offset="0.03" stop-color="#0E8FCF"/>
<stop offset="0.22" stop-color="#2073B8"/>
<stop offset="0.51" stop-color="#394D9A"/>
<stop offset="0.97" stop-color="#E5388B"/>
</linearGradient>
<linearGradient id="paint1_linear_75_819" x1="100.49" y1="-643.62" x2="139.63" y2="-643.62" gradientUnits="userSpaceOnUse">
<stop offset="0.03" stop-color="#0E8FCF"/>
<stop offset="0.22" stop-color="#2073B8"/>
<stop offset="0.51" stop-color="#394D9A"/>
<stop offset="0.97" stop-color="#E5388B"/>
</linearGradient>
<linearGradient id="paint2_linear_75_819" x1="100.49" y1="18.6001" x2="139.64" y2="18.6001" gradientUnits="userSpaceOnUse">
<stop offset="0.03" stop-color="#0E8FCF"/>
<stop offset="0.22" stop-color="#2073B8"/>
<stop offset="0.51" stop-color="#394D9A"/>
<stop offset="0.97" stop-color="#E5388B"/>
</linearGradient>
<linearGradient id="paint3_linear_75_819" x1="100.49" y1="-643.62" x2="139.64" y2="-643.62" gradientUnits="userSpaceOnUse">
<stop offset="0.03" stop-color="#0E8FCF"/>
<stop offset="0.22" stop-color="#2073B8"/>
<stop offset="0.51" stop-color="#394D9A"/>
<stop offset="0.97" stop-color="#E5388B"/>
</linearGradient>
<linearGradient id="paint4_linear_75_819" x1="702.37" y1="35.7501" x2="139.64" y2="35.7501" gradientUnits="userSpaceOnUse">
<stop offset="0.03" stop-color="#0E8FCF"/>
<stop offset="0.22" stop-color="#2073B8"/>
<stop offset="0.51" stop-color="#394D9A"/>
<stop offset="0.97" stop-color="#E5388B"/>
</linearGradient>
<linearGradient id="paint5_linear_75_819" x1="100.49" y1="35.7501" x2="139.64" y2="35.7501" gradientUnits="userSpaceOnUse">
<stop offset="0.03" stop-color="#0E8FCF"/>
<stop offset="0.22" stop-color="#2073B8"/>
<stop offset="0.51" stop-color="#394D9A"/>
<stop offset="0.97" stop-color="#E5388B"/>
</linearGradient>
<linearGradient id="paint6_linear_75_819" x1="100.49" y1="35.75" x2="139.64" y2="35.75" gradientUnits="userSpaceOnUse">
<stop offset="0.03" stop-color="#0E8FCF"/>
<stop offset="0.22" stop-color="#2073B8"/>
<stop offset="0.51" stop-color="#394D9A"/>
<stop offset="0.97" stop-color="#E5388B"/>
</linearGradient>
<linearGradient id="paint7_linear_75_819" x1="100.49" y1="35.7501" x2="139.64" y2="35.7501" gradientUnits="userSpaceOnUse">
<stop offset="0.03" stop-color="#0E8FCF"/>
<stop offset="0.22" stop-color="#2073B8"/>
<stop offset="0.51" stop-color="#394D9A"/>
<stop offset="0.97" stop-color="#E5388B"/>
</linearGradient>
<linearGradient id="paint8_linear_75_819" x1="702.37" y1="35.7501" x2="139.64" y2="35.7501" gradientUnits="userSpaceOnUse">
<stop offset="0.03" stop-color="#0E8FCF"/>
<stop offset="0.22" stop-color="#2073B8"/>
<stop offset="0.51" stop-color="#394D9A"/>
<stop offset="0.97" stop-color="#E5388B"/>
</linearGradient>
<linearGradient id="paint9_linear_75_819" x1="100.49" y1="35.75" x2="139.64" y2="35.75" gradientUnits="userSpaceOnUse">
<stop offset="0.03" stop-color="#0E8FCF"/>
<stop offset="0.22" stop-color="#2073B8"/>
<stop offset="0.51" stop-color="#394D9A"/>
<stop offset="0.97" stop-color="#E5388B"/>
</linearGradient>
<linearGradient id="paint10_linear_75_819" x1="107.67" y1="1.61" x2="141.53" y2="1.61" gradientUnits="userSpaceOnUse">
<stop offset="0.03" stop-color="#0E8FCF"/>
<stop offset="0.22" stop-color="#2073B8"/>
<stop offset="0.51" stop-color="#394D9A"/>
<stop offset="0.97" stop-color="#E5388B"/>
</linearGradient>
<linearGradient id="paint11_linear_75_819" x1="107.67" y1="4.77992" x2="141.53" y2="4.77992" gradientUnits="userSpaceOnUse">
<stop offset="0.03" stop-color="#0E8FCF"/>
<stop offset="0.22" stop-color="#2073B8"/>
<stop offset="0.51" stop-color="#394D9A"/>
<stop offset="0.97" stop-color="#E5388B"/>
</linearGradient>
<linearGradient id="paint12_linear_75_819" x1="107.67" y1="8.83998" x2="141.53" y2="8.83998" gradientUnits="userSpaceOnUse">
<stop offset="0.03" stop-color="#0E8FCF"/>
<stop offset="0.22" stop-color="#2073B8"/>
<stop offset="0.51" stop-color="#394D9A"/>
<stop offset="0.97" stop-color="#E5388B"/>
</linearGradient>
<linearGradient id="paint13_linear_75_819" x1="107.67" y1="12.7999" x2="141.53" y2="12.7999" gradientUnits="userSpaceOnUse">
<stop offset="0.03" stop-color="#0E8FCF"/>
<stop offset="0.22" stop-color="#2073B8"/>
<stop offset="0.51" stop-color="#394D9A"/>
<stop offset="0.97" stop-color="#E5388B"/>
</linearGradient>
<linearGradient id="paint14_linear_75_819" x1="107.67" y1="16.7599" x2="141.53" y2="16.7599" gradientUnits="userSpaceOnUse">
<stop offset="0.03" stop-color="#0E8FCF"/>
<stop offset="0.22" stop-color="#2073B8"/>
<stop offset="0.51" stop-color="#394D9A"/>
<stop offset="0.97" stop-color="#E5388B"/>
</linearGradient>
<linearGradient id="paint15_linear_75_819" x1="107.67" y1="4.77992" x2="141.53" y2="4.77992" gradientUnits="userSpaceOnUse">
<stop offset="0.03" stop-color="#0E8FCF"/>
<stop offset="0.22" stop-color="#2073B8"/>
<stop offset="0.51" stop-color="#394D9A"/>
<stop offset="0.97" stop-color="#E5388B"/>
</linearGradient>
<linearGradient id="paint16_linear_75_819" x1="107.67" y1="8.83998" x2="141.53" y2="8.83998" gradientUnits="userSpaceOnUse">
<stop offset="0.03" stop-color="#0E8FCF"/>
<stop offset="0.22" stop-color="#2073B8"/>
<stop offset="0.51" stop-color="#394D9A"/>
<stop offset="0.97" stop-color="#E5388B"/>
</linearGradient>
<linearGradient id="paint17_linear_75_819" x1="107.67" y1="16.7599" x2="141.53" y2="16.7599" gradientUnits="userSpaceOnUse">
<stop offset="0.03" stop-color="#0E8FCF"/>
<stop offset="0.22" stop-color="#2073B8"/>
<stop offset="0.51" stop-color="#394D9A"/>
<stop offset="0.97" stop-color="#E5388B"/>
</linearGradient>
<linearGradient id="paint18_linear_75_819" x1="107.67" y1="8.83998" x2="141.53" y2="8.83998" gradientUnits="userSpaceOnUse">
<stop offset="0.03" stop-color="#0E8FCF"/>
<stop offset="0.22" stop-color="#2073B8"/>
<stop offset="0.51" stop-color="#394D9A"/>
<stop offset="0.97" stop-color="#E5388B"/>
</linearGradient>
<linearGradient id="paint19_linear_75_819" x1="107.67" y1="8.83998" x2="141.53" y2="8.83998" gradientUnits="userSpaceOnUse">
<stop offset="0.03" stop-color="#0E8FCF"/>
<stop offset="0.22" stop-color="#2073B8"/>
<stop offset="0.51" stop-color="#394D9A"/>
<stop offset="0.97" stop-color="#E5388B"/>
</linearGradient>
<linearGradient id="paint20_linear_75_819" x1="107.67" y1="12.81" x2="141.53" y2="12.81" gradientUnits="userSpaceOnUse">
<stop offset="0.03" stop-color="#0E8FCF"/>
<stop offset="0.22" stop-color="#2073B8"/>
<stop offset="0.51" stop-color="#394D9A"/>
<stop offset="0.97" stop-color="#E5388B"/>
</linearGradient>
<linearGradient id="paint21_linear_75_819" x1="107.67" y1="16.7599" x2="141.53" y2="16.7599" gradientUnits="userSpaceOnUse">
<stop offset="0.03" stop-color="#0E8FCF"/>
<stop offset="0.22" stop-color="#2073B8"/>
<stop offset="0.51" stop-color="#394D9A"/>
<stop offset="0.97" stop-color="#E5388B"/>
</linearGradient>
<linearGradient id="paint22_linear_75_819" x1="107.67" y1="16.7599" x2="141.53" y2="16.7599" gradientUnits="userSpaceOnUse">
<stop offset="0.03" stop-color="#0E8FCF"/>
<stop offset="0.22" stop-color="#2073B8"/>
<stop offset="0.51" stop-color="#394D9A"/>
<stop offset="0.97" stop-color="#E5388B"/>
</linearGradient>
<linearGradient id="paint23_linear_75_819" x1="107.67" y1="20.7699" x2="141.53" y2="20.7699" gradientUnits="userSpaceOnUse">
<stop offset="0.03" stop-color="#0E8FCF"/>
<stop offset="0.22" stop-color="#2073B8"/>
<stop offset="0.51" stop-color="#394D9A"/>
<stop offset="0.97" stop-color="#E5388B"/>
</linearGradient>
<linearGradient id="paint24_linear_75_819" x1="107.67" y1="8.83998" x2="141.53" y2="8.83998" gradientUnits="userSpaceOnUse">
<stop offset="0.03" stop-color="#0E8FCF"/>
<stop offset="0.22" stop-color="#2073B8"/>
<stop offset="0.51" stop-color="#394D9A"/>
<stop offset="0.97" stop-color="#E5388B"/>
</linearGradient>
<linearGradient id="paint25_linear_75_819" x1="107.67" y1="7.2101" x2="141.53" y2="7.2101" gradientUnits="userSpaceOnUse">
<stop offset="0.03" stop-color="#0E8FCF"/>
<stop offset="0.22" stop-color="#2073B8"/>
<stop offset="0.51" stop-color="#394D9A"/>
<stop offset="0.97" stop-color="#E5388B"/>
</linearGradient>
<linearGradient id="paint26_linear_75_819" x1="107.67" y1="12.7999" x2="141.53" y2="12.7999" gradientUnits="userSpaceOnUse">
<stop offset="0.03" stop-color="#0E8FCF"/>
<stop offset="0.22" stop-color="#2073B8"/>
<stop offset="0.51" stop-color="#394D9A"/>
<stop offset="0.97" stop-color="#E5388B"/>
</linearGradient>
<clipPath id="clip0_75_819">
<rect width="167.56" height="60.78" fill="white"/>
</clipPath>
</defs>
</svg>
